<svg enable-background="new 0 0 308.857 77.697" viewBox="0 0 308.857 77.697" xmlns="http://www.w3.org/2000/svg"><path d="m13.308 28.197h-13.308v-12.01h40.248v12.01h-13.308v48.85h-13.632z" fill="#fff"/><path d="m41.79 32.66h13.633v6.005l1.866-2.515c2.434-3.246 5.842-4.139 9.494-4.139h1.947v11.766h-3.489c-3.651 0-6.005 1.46-8.602 4.139l-1.217 1.217v27.914h-13.632z" fill="#fff"/><path d="m70.137 63.414v-8.52c0-14.606 9.494-22.234 22.802-22.234h15.905v44.387h-13.633v-5.437l-1.299.974c-5.031 4.057-7.952 5.112-12.334 5.112-6.654.001-11.441-4.138-11.441-14.282zm23.775-1.866 1.299-1.055v-16.716h-1.948c-6.33 0-9.494 2.191-9.494 10.468v6.33c0 3.814.649 5.031 2.84 5.031 1.623 0 3.165-.731 7.303-4.058z" fill="#fff"/><path d="m118.902 59.925v-16.148h-5.68v-11.117h5.68v-11.441h13.633v11.441h9.818v11.117h-9.818v12.983c0 6.979 1.298 9.169 7.627 9.169h2.191v11.117h-5.68c-11.441.001-17.771-5.679-17.771-17.121z" fill="#fff"/><path d="m150.656 43.777h-5.031v-11.117h18.664v44.387h-13.632v-33.27z" fill="#fff"/><path d="m168.914 47.916v-15.256h13.633v13.958c0 10.143 1.947 16.473 5.437 20.936 3.489-4.463 4.707-10.792 4.707-20.936v-13.958h13.632v15.256c0 15.174-6.329 24.344-11.441 29.131h-15.174c-4.464-4.787-10.794-13.957-10.794-29.131z" fill="#fff"/><circle cx="157.472" cy="21.382" fill="#be1622" r="6.816"/><path d="m216.165 43.777h-5.031v-11.117h18.664v44.387h-13.632v-33.27z" fill="#fff"/><circle cx="222.981" cy="21.382" fill="#be1622" r="6.816"/><circle cx="276.073" cy="32.784" fill="#be1622" r="32.784"/><g fill="#fff"><circle cx="263.652" cy="10.959" r="3.059"/><circle cx="271.933" cy="10.959" r="3.059"/><circle cx="280.214" cy="10.959" r="3.059"/><circle cx="288.495" cy="10.959" r="3.059"/><circle cx="263.652" cy="54.599" r="3.059"/><circle cx="271.933" cy="54.599" r="3.059"/><circle cx="280.214" cy="54.599" r="3.059"/><circle cx="288.495" cy="54.599" r="3.059"/><circle cx="259.511" cy="18.233" r="3.059"/><circle cx="267.792" cy="18.233" r="3.059"/><circle cx="276.073" cy="18.233" r="3.059"/><circle cx="284.354" cy="18.233" r="3.059"/><circle cx="292.635" cy="18.233" r="3.059"/><circle cx="259.511" cy="47.326" r="3.059"/><circle cx="267.792" cy="47.326" r="3.059"/><circle cx="276.073" cy="47.326" r="3.059"/><circle cx="284.354" cy="47.326" r="3.059"/><circle cx="292.635" cy="47.326" r="3.059"/><circle cx="255.371" cy="25.506" r="3.059"/><circle cx="263.652" cy="25.506" r="3.059"/><circle cx="271.933" cy="25.506" r="3.059"/><circle cx="280.214" cy="25.506" r="3.059"/><circle cx="288.495" cy="25.506" r="3.059"/><circle cx="296.776" cy="25.506" r="3.059"/><circle cx="255.371" cy="40.052" r="3.059"/><circle cx="263.652" cy="40.052" r="3.059"/><circle cx="271.933" cy="40.052" r="3.059"/><circle cx="280.214" cy="40.052" r="3.059"/><circle cx="288.495" cy="40.052" r="3.059"/><circle cx="296.776" cy="40.052" r="3.059"/><circle cx="251.23" cy="32.779" r="3.059"/><circle cx="259.511" cy="32.779" r="3.059"/><circle cx="267.792" cy="32.779" r="3.059"/><circle cx="276.073" cy="32.779" r="3.059"/><circle cx="284.354" cy="32.779" r="3.059"/><circle cx="292.635" cy="32.779" r="3.059"/><circle cx="300.916" cy="32.779" r="3.059"/></g></svg>